{
	"asset":{
		"copyright":"Ryosuke Hana",
		"generator":"Khronos glTF Blender I/O v4.2.60",
		"version":"2.0"
	},
	"scene":0,
	"scenes":[
		{
			"name":"Scene",
			"nodes":[
				0,
				1,
				2,
				3,
				4,
				5,
				6,
				7,
				8,
				9,
				10,
				11,
				12
			]
		}
	],
	"nodes":[
		{
			"mesh":0,
			"name":"Board.001",
			"translation":[
				-0.6815763711929321,
				1.1085981130599976,
				-2.9620375633239746
			]
		},
		{
			"mesh":1,
			"name":"BlackKey.G#",
			"translation":[
				4.322876453399658,
				0.9855115413665771,
				-5.416965007781982
			]
		},
		{
			"mesh":2,
			"name":"BlackKey.C#",
			"translation":[
				-0.030504941940307617,
				0.9855115413665771,
				-5.416965007781982
			]
		},
		{
			"mesh":3,
			"name":"WhiteKeySlim.C",
			"translation":[
				-0.495633065700531,
				0.8127204179763794,
				-5.438958644866943
			]
		},
		{
			"mesh":4,
			"name":"WhiteKeySlim.D",
			"translation":[
				-0.495633065700531,
				0.8127204179763794,
				-5.438958644866943
			]
		},
		{
			"mesh":5,
			"name":"WhiteKeySlim.E",
			"translation":[
				-0.495633065700531,
				0.8127204179763794,
				-5.438958644866943
			]
		},
		{
			"mesh":6,
			"name":"WhiteKeySlim.F",
			"translation":[
				-0.495633065700531,
				0.8127204179763794,
				-5.438958644866943
			]
		},
		{
			"mesh":7,
			"name":"WhiteKeySlim.G",
			"translation":[
				-0.495633065700531,
				0.8127204179763794,
				-5.438958644866943
			]
		},
		{
			"mesh":8,
			"name":"WhiteKeySlim.A",
			"translation":[
				-0.495633065700531,
				0.8127204179763794,
				-5.438958644866943
			]
		},
		{
			"mesh":9,
			"name":"WhiteKeySlim.B",
			"translation":[
				-0.495633065700531,
				0.8127204179763794,
				-5.438958644866943
			]
		},
		{
			"mesh":10,
			"name":"BlackKey.D#",
			"translation":[
				-0.030504941940307617,
				0.9855115413665771,
				-5.416965007781982
			]
		},
		{
			"mesh":11,
			"name":"BlackKey.F#",
			"translation":[
				1.044228196144104,
				0.9855115413665771,
				-5.416965007781982
			]
		},
		{
			"mesh":12,
			"name":"BlackKey.A#",
			"translation":[
				4.322876453399658,
				0.9855115413665771,
				-5.416965007781982
			]
		}
	],
	"materials":[
		{
			"doubleSided":true,
			"name":"Brushed_Aluminum_shkaaafc",
			"normalTexture":{
				"index":0
			},
			"pbrMetallicRoughness":{
				"baseColorTexture":{
					"index":1
				},
				"metallicRoughnessTexture":{
					"index":2
				}
			}
		},
		{
			"doubleSided":true,
			"name":"Screen",
			"pbrMetallicRoughness":{
				"baseColorTexture":{
					"index":3
				},
				"metallicFactor":0.23636363446712494,
				"roughnessFactor":0.04545454680919647
			}
		},
		{
			"doubleSided":true,
			"name":"PianoKey.Black",
			"pbrMetallicRoughness":{
				"baseColorFactor":[
					0,
					0,
					0,
					1
				],
				"metallicFactor":0.145454540848732,
				"roughnessFactor":0.15909093618392944
			}
		}
	],
	"meshes":[
		{
			"name":"Cube.003",
			"primitives":[
				{
					"attributes":{
						"POSITION":0,
						"NORMAL":1,
						"TEXCOORD_0":2
					},
					"indices":3,
					"material":0
				},
				{
					"attributes":{
						"POSITION":4,
						"NORMAL":5,
						"TEXCOORD_0":6
					},
					"indices":7,
					"material":1
				}
			]
		},
		{
			"name":"Cube.019",
			"primitives":[
				{
					"attributes":{
						"POSITION":8,
						"NORMAL":9,
						"TEXCOORD_0":10
					},
					"indices":11,
					"material":2
				}
			]
		},
		{
			"name":"Cube.020",
			"primitives":[
				{
					"attributes":{
						"POSITION":12,
						"NORMAL":13,
						"TEXCOORD_0":14
					},
					"indices":11,
					"material":2
				}
			]
		},
		{
			"name":"Cube.018",
			"primitives":[
				{
					"attributes":{
						"POSITION":15,
						"NORMAL":16,
						"TEXCOORD_0":17
					},
					"indices":18,
					"material":0
				}
			]
		},
		{
			"name":"Cube.022",
			"primitives":[
				{
					"attributes":{
						"POSITION":19,
						"NORMAL":20,
						"TEXCOORD_0":21
					},
					"indices":22,
					"material":0
				}
			]
		},
		{
			"name":"Cube.023",
			"primitives":[
				{
					"attributes":{
						"POSITION":23,
						"NORMAL":24,
						"TEXCOORD_0":25
					},
					"indices":22,
					"material":0
				}
			]
		},
		{
			"name":"Cube.024",
			"primitives":[
				{
					"attributes":{
						"POSITION":26,
						"NORMAL":27,
						"TEXCOORD_0":28
					},
					"indices":22,
					"material":0
				}
			]
		},
		{
			"name":"Cube.025",
			"primitives":[
				{
					"attributes":{
						"POSITION":29,
						"NORMAL":30,
						"TEXCOORD_0":31
					},
					"indices":22,
					"material":0
				}
			]
		},
		{
			"name":"Cube.026",
			"primitives":[
				{
					"attributes":{
						"POSITION":32,
						"NORMAL":33,
						"TEXCOORD_0":34
					},
					"indices":22,
					"material":0
				}
			]
		},
		{
			"name":"Cube.027",
			"primitives":[
				{
					"attributes":{
						"POSITION":35,
						"NORMAL":36,
						"TEXCOORD_0":37
					},
					"indices":22,
					"material":0
				}
			]
		},
		{
			"name":"Cube.028",
			"primitives":[
				{
					"attributes":{
						"POSITION":38,
						"NORMAL":39,
						"TEXCOORD_0":40
					},
					"indices":41,
					"material":2
				}
			]
		},
		{
			"name":"Cube.029",
			"primitives":[
				{
					"attributes":{
						"POSITION":42,
						"NORMAL":43,
						"TEXCOORD_0":44
					},
					"indices":41,
					"material":2
				}
			]
		},
		{
			"name":"Cube.030",
			"primitives":[
				{
					"attributes":{
						"POSITION":45,
						"NORMAL":46,
						"TEXCOORD_0":47
					},
					"indices":41,
					"material":2
				}
			]
		}
	],
	"textures":[
		{
			"sampler":0,
			"source":0
		},
		{
			"sampler":0,
			"source":1
		},
		{
			"sampler":0,
			"source":2
		},
		{
			"sampler":0,
			"source":3
		}
	],
	"images":[
		{
			"mimeType":"image/jpeg",
			"name":"shkaaafc_4K_Normal",
			"uri":"shkaaafc_4K_Normal.jpg"
		},
		{
			"mimeType":"image/jpeg",
			"name":"shkaaafc_4K_Albedo",
			"uri":"shkaaafc_4K_Albedo.jpg"
		},
		{
			"mimeType":"image/png",
			"name":"shkaaafc_4K_Roughness",
			"uri":"shkaaafc_4K_Roughness.png"
		},
		{
			"mimeType":"image/png",
			"name":"Screen UV - R1 - albedo",
			"uri":"Screen%20UV%20-%20R1%20-%20albedo.png"
		}
	],
	"accessors":[
		{
			"bufferView":0,
			"componentType":5126,
			"count":3808,
			"max":[
				7.278866767883301,
				-0.22285044193267822,
				4.0806427001953125
			],
			"min":[
				-9.701051712036133,
				-0.6002219319343567,
				-2.622628688812256
			],
			"type":"VEC3"
		},
		{
			"bufferView":1,
			"componentType":5126,
			"count":3808,
			"type":"VEC3"
		},
		{
			"bufferView":2,
			"componentType":5126,
			"count":3808,
			"type":"VEC2"
		},
		{
			"bufferView":3,
			"componentType":5123,
			"count":6390,
			"type":"SCALAR"
		},
		{
			"bufferView":4,
			"componentType":5126,
			"count":656,
			"max":[
				-0.5419830083847046,
				-0.22285056114196777,
				4.0806427001953125
			],
			"min":[
				-9.701051712036133,
				-0.41225290298461914,
				-2.622628688812256
			],
			"type":"VEC3"
		},
		{
			"bufferView":5,
			"componentType":5126,
			"count":656,
			"type":"VEC3"
		},
		{
			"bufferView":6,
			"componentType":5126,
			"count":656,
			"type":"VEC2"
		},
		{
			"bufferView":7,
			"componentType":5123,
			"count":1098,
			"type":"SCALAR"
		},
		{
			"bufferView":8,
			"componentType":5126,
			"count":168,
			"max":[
				0.35924315452575684,
				0.07897396385669708,
				4.205502033233643
			],
			"min":[
				-0.3592425584793091,
				-0.11625915765762329,
				-0.015988826751708984
			],
			"type":"VEC3"
		},
		{
			"bufferView":9,
			"componentType":5126,
			"count":168,
			"type":"VEC3"
		},
		{
			"bufferView":10,
			"componentType":5126,
			"count":168,
			"type":"VEC2"
		},
		{
			"bufferView":11,
			"componentType":5123,
			"count":276,
			"type":"SCALAR"
		},
		{
			"bufferView":12,
			"componentType":5126,
			"count":168,
			"max":[
				0.35924291610717773,
				0.07897396385669708,
				4.205502033233643
			],
			"min":[
				-0.35924291610717773,
				-0.11625915765762329,
				-0.015988826751708984
			],
			"type":"VEC3"
		},
		{
			"bufferView":13,
			"componentType":5126,
			"count":168,
			"type":"VEC3"
		},
		{
			"bufferView":14,
			"componentType":5126,
			"count":168,
			"type":"VEC2"
		},
		{
			"bufferView":15,
			"componentType":5126,
			"count":624,
			"max":[
				0.5165473818778992,
				0.1446608304977417,
				6.388261795043945
			],
			"min":[
				-0.5165473818778992,
				-0.1446608304977417,
				0
			],
			"type":"VEC3"
		},
		{
			"bufferView":16,
			"componentType":5126,
			"count":624,
			"type":"VEC3"
		},
		{
			"bufferView":17,
			"componentType":5126,
			"count":624,
			"type":"VEC2"
		},
		{
			"bufferView":18,
			"componentType":5123,
			"count":948,
			"type":"SCALAR"
		},
		{
			"bufferView":19,
			"componentType":5126,
			"count":624,
			"max":[
				1.590965986251831,
				0.1446608304977417,
				6.388261795043945
			],
			"min":[
				0.5578711628913879,
				-0.1446608304977417,
				0
			],
			"type":"VEC3"
		},
		{
			"bufferView":20,
			"componentType":5126,
			"count":624,
			"type":"VEC3"
		},
		{
			"bufferView":21,
			"componentType":5126,
			"count":624,
			"type":"VEC2"
		},
		{
			"bufferView":22,
			"componentType":5123,
			"count":948,
			"type":"SCALAR"
		},
		{
			"bufferView":23,
			"componentType":5126,
			"count":624,
			"max":[
				2.665384531021118,
				0.1446608304977417,
				6.388261795043945
			],
			"min":[
				1.6322896480560303,
				-0.1446608304977417,
				0
			],
			"type":"VEC3"
		},
		{
			"bufferView":24,
			"componentType":5126,
			"count":624,
			"type":"VEC3"
		},
		{
			"bufferView":25,
			"componentType":5126,
			"count":624,
			"type":"VEC2"
		},
		{
			"bufferView":26,
			"componentType":5126,
			"count":624,
			"max":[
				3.7398030757904053,
				0.1446608304977417,
				6.388261795043945
			],
			"min":[
				2.7067081928253174,
				-0.1446608304977417,
				0
			],
			"type":"VEC3"
		},
		{
			"bufferView":27,
			"componentType":5126,
			"count":624,
			"type":"VEC3"
		},
		{
			"bufferView":28,
			"componentType":5126,
			"count":624,
			"type":"VEC2"
		},
		{
			"bufferView":29,
			"componentType":5126,
			"count":624,
			"max":[
				4.814221382141113,
				0.1446608304977417,
				6.388261795043945
			],
			"min":[
				3.7811267375946045,
				-0.1446608304977417,
				0
			],
			"type":"VEC3"
		},
		{
			"bufferView":30,
			"componentType":5126,
			"count":624,
			"type":"VEC3"
		},
		{
			"bufferView":31,
			"componentType":5126,
			"count":624,
			"type":"VEC2"
		},
		{
			"bufferView":32,
			"componentType":5126,
			"count":624,
			"max":[
				5.8886399269104,
				0.1446608304977417,
				6.388261795043945
			],
			"min":[
				4.855545520782471,
				-0.1446608304977417,
				0
			],
			"type":"VEC3"
		},
		{
			"bufferView":33,
			"componentType":5126,
			"count":624,
			"type":"VEC3"
		},
		{
			"bufferView":34,
			"componentType":5126,
			"count":624,
			"type":"VEC2"
		},
		{
			"bufferView":35,
			"componentType":5126,
			"count":624,
			"max":[
				6.9630584716796875,
				0.1446608304977417,
				6.388261795043945
			],
			"min":[
				5.929964065551758,
				-0.1446608304977417,
				0
			],
			"type":"VEC3"
		},
		{
			"bufferView":36,
			"componentType":5126,
			"count":624,
			"type":"VEC3"
		},
		{
			"bufferView":37,
			"componentType":5126,
			"count":624,
			"type":"VEC2"
		},
		{
			"bufferView":38,
			"componentType":5126,
			"count":168,
			"max":[
				1.4728959798812866,
				0.07897396385669708,
				4.205502033233643
			],
			"min":[
				0.7544101476669312,
				-0.11625915765762329,
				-0.015988826751708984
			],
			"type":"VEC3"
		},
		{
			"bufferView":39,
			"componentType":5126,
			"count":168,
			"type":"VEC3"
		},
		{
			"bufferView":40,
			"componentType":5126,
			"count":168,
			"type":"VEC2"
		},
		{
			"bufferView":41,
			"componentType":5123,
			"count":276,
			"type":"SCALAR"
		},
		{
			"bufferView":42,
			"componentType":5126,
			"count":168,
			"max":[
				2.5865490436553955,
				0.07897396385669708,
				4.205502033233643
			],
			"min":[
				1.86806321144104,
				-0.11625915765762329,
				-0.015988826751708984
			],
			"type":"VEC3"
		},
		{
			"bufferView":43,
			"componentType":5126,
			"count":168,
			"type":"VEC3"
		},
		{
			"bufferView":44,
			"componentType":5126,
			"count":168,
			"type":"VEC2"
		},
		{
			"bufferView":45,
			"componentType":5126,
			"count":168,
			"max":[
				1.4441566467285156,
				0.07897396385669708,
				4.205502033233643
			],
			"min":[
				0.7256709337234497,
				-0.11625915765762329,
				-0.015988826751708984
			],
			"type":"VEC3"
		},
		{
			"bufferView":46,
			"componentType":5126,
			"count":168,
			"type":"VEC3"
		},
		{
			"bufferView":47,
			"componentType":5126,
			"count":168,
			"type":"VEC2"
		}
	],
	"bufferViews":[
		{
			"buffer":0,
			"byteLength":45696,
			"byteOffset":0,
			"target":34962
		},
		{
			"buffer":0,
			"byteLength":45696,
			"byteOffset":45696,
			"target":34962
		},
		{
			"buffer":0,
			"byteLength":30464,
			"byteOffset":91392,
			"target":34962
		},
		{
			"buffer":0,
			"byteLength":12780,
			"byteOffset":121856,
			"target":34963
		},
		{
			"buffer":0,
			"byteLength":7872,
			"byteOffset":134636,
			"target":34962
		},
		{
			"buffer":0,
			"byteLength":7872,
			"byteOffset":142508,
			"target":34962
		},
		{
			"buffer":0,
			"byteLength":5248,
			"byteOffset":150380,
			"target":34962
		},
		{
			"buffer":0,
			"byteLength":2196,
			"byteOffset":155628,
			"target":34963
		},
		{
			"buffer":0,
			"byteLength":2016,
			"byteOffset":157824,
			"target":34962
		},
		{
			"buffer":0,
			"byteLength":2016,
			"byteOffset":159840,
			"target":34962
		},
		{
			"buffer":0,
			"byteLength":1344,
			"byteOffset":161856,
			"target":34962
		},
		{
			"buffer":0,
			"byteLength":552,
			"byteOffset":163200,
			"target":34963
		},
		{
			"buffer":0,
			"byteLength":2016,
			"byteOffset":163752,
			"target":34962
		},
		{
			"buffer":0,
			"byteLength":2016,
			"byteOffset":165768,
			"target":34962
		},
		{
			"buffer":0,
			"byteLength":1344,
			"byteOffset":167784,
			"target":34962
		},
		{
			"buffer":0,
			"byteLength":7488,
			"byteOffset":169128,
			"target":34962
		},
		{
			"buffer":0,
			"byteLength":7488,
			"byteOffset":176616,
			"target":34962
		},
		{
			"buffer":0,
			"byteLength":4992,
			"byteOffset":184104,
			"target":34962
		},
		{
			"buffer":0,
			"byteLength":1896,
			"byteOffset":189096,
			"target":34963
		},
		{
			"buffer":0,
			"byteLength":7488,
			"byteOffset":190992,
			"target":34962
		},
		{
			"buffer":0,
			"byteLength":7488,
			"byteOffset":198480,
			"target":34962
		},
		{
			"buffer":0,
			"byteLength":4992,
			"byteOffset":205968,
			"target":34962
		},
		{
			"buffer":0,
			"byteLength":1896,
			"byteOffset":210960,
			"target":34963
		},
		{
			"buffer":0,
			"byteLength":7488,
			"byteOffset":212856,
			"target":34962
		},
		{
			"buffer":0,
			"byteLength":7488,
			"byteOffset":220344,
			"target":34962
		},
		{
			"buffer":0,
			"byteLength":4992,
			"byteOffset":227832,
			"target":34962
		},
		{
			"buffer":0,
			"byteLength":7488,
			"byteOffset":232824,
			"target":34962
		},
		{
			"buffer":0,
			"byteLength":7488,
			"byteOffset":240312,
			"target":34962
		},
		{
			"buffer":0,
			"byteLength":4992,
			"byteOffset":247800,
			"target":34962
		},
		{
			"buffer":0,
			"byteLength":7488,
			"byteOffset":252792,
			"target":34962
		},
		{
			"buffer":0,
			"byteLength":7488,
			"byteOffset":260280,
			"target":34962
		},
		{
			"buffer":0,
			"byteLength":4992,
			"byteOffset":267768,
			"target":34962
		},
		{
			"buffer":0,
			"byteLength":7488,
			"byteOffset":272760,
			"target":34962
		},
		{
			"buffer":0,
			"byteLength":7488,
			"byteOffset":280248,
			"target":34962
		},
		{
			"buffer":0,
			"byteLength":4992,
			"byteOffset":287736,
			"target":34962
		},
		{
			"buffer":0,
			"byteLength":7488,
			"byteOffset":292728,
			"target":34962
		},
		{
			"buffer":0,
			"byteLength":7488,
			"byteOffset":300216,
			"target":34962
		},
		{
			"buffer":0,
			"byteLength":4992,
			"byteOffset":307704,
			"target":34962
		},
		{
			"buffer":0,
			"byteLength":2016,
			"byteOffset":312696,
			"target":34962
		},
		{
			"buffer":0,
			"byteLength":2016,
			"byteOffset":314712,
			"target":34962
		},
		{
			"buffer":0,
			"byteLength":1344,
			"byteOffset":316728,
			"target":34962
		},
		{
			"buffer":0,
			"byteLength":552,
			"byteOffset":318072,
			"target":34963
		},
		{
			"buffer":0,
			"byteLength":2016,
			"byteOffset":318624,
			"target":34962
		},
		{
			"buffer":0,
			"byteLength":2016,
			"byteOffset":320640,
			"target":34962
		},
		{
			"buffer":0,
			"byteLength":1344,
			"byteOffset":322656,
			"target":34962
		},
		{
			"buffer":0,
			"byteLength":2016,
			"byteOffset":324000,
			"target":34962
		},
		{
			"buffer":0,
			"byteLength":2016,
			"byteOffset":326016,
			"target":34962
		},
		{
			"buffer":0,
			"byteLength":1344,
			"byteOffset":328032,
			"target":34962
		}
	],
	"samplers":[
		{
			"magFilter":9729,
			"minFilter":9987
		}
	],
	"buffers":[
		{
			"byteLength":329376,
			"uri":"MIDI%20Product%20Piano%20-%20R1.bin"
		}
	]
}
